<mxfile host="Electron" modified="2024-02-28T12:33:36.061Z" agent="Mozilla/5.0 (Windows NT 10.0; Win64; x64) AppleWebKit/537.36 (KHTML, like Gecko) draw.io/23.1.5 Chrome/120.0.6099.109 Electron/28.1.0 Safari/537.36" etag="AVJQXgpF0UOZhbj2yO_u" version="23.1.5" type="device">
  <diagram name="Page-1" id="6DCHXV7aNCnjB9ritMhT">
    <mxGraphModel dx="2074" dy="1196" grid="1" gridSize="10" guides="1" tooltips="1" connect="1" arrows="1" fold="1" page="1" pageScale="1" pageWidth="1169" pageHeight="827" math="0" shadow="0">
      <root>
        <mxCell id="0" />
        <mxCell id="1" parent="0" />
        <mxCell id="HQRRhqOJha28pibekyes-1" value="" style="rounded=0;whiteSpace=wrap;html=1;" vertex="1" parent="1">
          <mxGeometry x="270" y="160" width="550" height="530" as="geometry" />
        </mxCell>
        <mxCell id="HQRRhqOJha28pibekyes-2" value="Host/Server" style="text;strokeColor=none;align=center;fillColor=none;html=1;verticalAlign=middle;whiteSpace=wrap;rounded=0;fontSize=15;" vertex="1" parent="1">
          <mxGeometry x="270" y="160" width="130" height="30" as="geometry" />
        </mxCell>
        <mxCell id="HQRRhqOJha28pibekyes-5" value="" style="rounded=0;whiteSpace=wrap;html=1;verticalAlign=top;fillColor=#dae8fc;strokeColor=#6c8ebf;" vertex="1" parent="1">
          <mxGeometry x="575" y="260" width="215" height="390" as="geometry" />
        </mxCell>
        <mxCell id="HQRRhqOJha28pibekyes-3" value="Webserver&lt;br&gt;Container" style="shape=cylinder3;whiteSpace=wrap;html=1;boundedLbl=1;backgroundOutline=1;size=15;fillColor=#1ba1e2;fontColor=#ffffff;strokeColor=#006EAF;" vertex="1" parent="1">
          <mxGeometry x="639" y="330" width="87" height="116" as="geometry" />
        </mxCell>
        <mxCell id="HQRRhqOJha28pibekyes-4" value="API Server&lt;br&gt;Container" style="shape=cylinder3;whiteSpace=wrap;html=1;boundedLbl=1;backgroundOutline=1;size=15;fillColor=#1ba1e2;fontColor=#ffffff;strokeColor=#006EAF;" vertex="1" parent="1">
          <mxGeometry x="639" y="500" width="87" height="116" as="geometry" />
        </mxCell>
        <mxCell id="HQRRhqOJha28pibekyes-6" value="" style="shape=providedRequiredInterface;html=1;verticalLabelPosition=bottom;sketch=0;rotation=-180;" vertex="1" parent="1">
          <mxGeometry x="550" y="538" width="40" height="40" as="geometry" />
        </mxCell>
        <mxCell id="HQRRhqOJha28pibekyes-7" value="" style="rounded=0;whiteSpace=wrap;html=1;verticalAlign=top;fillColor=#d5e8d4;strokeColor=#82b366;" vertex="1" parent="1">
          <mxGeometry x="290" y="260" width="150" height="230" as="geometry" />
        </mxCell>
        <mxCell id="HQRRhqOJha28pibekyes-8" value="" style="shape=mxgraph.signs.tech.computer;html=1;pointerEvents=1;fillColor=#000000;strokeColor=none;verticalLabelPosition=bottom;verticalAlign=top;align=center;sketch=0;" vertex="1" parent="1">
          <mxGeometry x="300" y="270" width="46" height="46" as="geometry" />
        </mxCell>
        <mxCell id="HQRRhqOJha28pibekyes-10" value="" style="shape=providedRequiredInterface;html=1;verticalLabelPosition=bottom;sketch=0;rotation=-180;" vertex="1" parent="1">
          <mxGeometry x="550" y="368" width="40" height="40" as="geometry" />
        </mxCell>
        <mxCell id="HQRRhqOJha28pibekyes-11" value="MatFunc&lt;br&gt;Webapp" style="rounded=0;whiteSpace=wrap;html=1;fillColor=#60a917;fontColor=#ffffff;strokeColor=#2D7600;" vertex="1" parent="1">
          <mxGeometry x="305" y="380" width="120" height="70" as="geometry" />
        </mxCell>
        <mxCell id="HQRRhqOJha28pibekyes-13" value="Browser" style="text;strokeColor=none;align=center;fillColor=none;html=1;verticalAlign=middle;whiteSpace=wrap;rounded=0;" vertex="1" parent="1">
          <mxGeometry x="360" y="260" width="60" height="30" as="geometry" />
        </mxCell>
        <mxCell id="HQRRhqOJha28pibekyes-14" value="Docker Engine" style="text;strokeColor=none;align=center;fillColor=none;html=1;verticalAlign=middle;whiteSpace=wrap;rounded=0;" vertex="1" parent="1">
          <mxGeometry x="639" y="260" width="130" height="30" as="geometry" />
        </mxCell>
        <mxCell id="HQRRhqOJha28pibekyes-15" value="" style="image;sketch=0;aspect=fixed;html=1;points=[];align=center;fontSize=12;image=img/lib/mscae/Docker.svg;" vertex="1" parent="1">
          <mxGeometry x="590" y="270" width="50" height="41" as="geometry" />
        </mxCell>
        <mxCell id="HQRRhqOJha28pibekyes-16" value="" style="shape=providedRequiredInterface;html=1;verticalLabelPosition=bottom;sketch=0;rotation=0;" vertex="1" parent="1">
          <mxGeometry x="420" y="300" width="39" height="39" as="geometry" />
        </mxCell>
        <mxCell id="HQRRhqOJha28pibekyes-17" value="" style="shape=providedRequiredInterface;html=1;verticalLabelPosition=bottom;sketch=0;rotation=90;" vertex="1" parent="1">
          <mxGeometry x="346" y="435.5" width="39" height="39" as="geometry" />
        </mxCell>
        <mxCell id="HQRRhqOJha28pibekyes-18" value="" style="endArrow=none;html=1;rounded=0;entryX=1;entryY=0.5;entryDx=0;entryDy=0;entryPerimeter=0;exitX=1;exitY=0.5;exitDx=0;exitDy=0;exitPerimeter=0;" edge="1" parent="1" source="HQRRhqOJha28pibekyes-10" target="HQRRhqOJha28pibekyes-16">
          <mxGeometry width="50" height="50" relative="1" as="geometry">
            <mxPoint x="390" y="600" as="sourcePoint" />
            <mxPoint x="440" y="550" as="targetPoint" />
            <Array as="points">
              <mxPoint x="510" y="388" />
              <mxPoint x="510" y="320" />
            </Array>
          </mxGeometry>
        </mxCell>
        <mxCell id="HQRRhqOJha28pibekyes-19" value="" style="endArrow=none;html=1;rounded=0;entryX=1;entryY=0.5;entryDx=0;entryDy=0;entryPerimeter=0;exitX=1;exitY=0.5;exitDx=0;exitDy=0;exitPerimeter=0;" edge="1" parent="1" source="HQRRhqOJha28pibekyes-6" target="HQRRhqOJha28pibekyes-17">
          <mxGeometry width="50" height="50" relative="1" as="geometry">
            <mxPoint x="150" y="610" as="sourcePoint" />
            <mxPoint x="200" y="560" as="targetPoint" />
            <Array as="points">
              <mxPoint x="366" y="560" />
            </Array>
          </mxGeometry>
        </mxCell>
        <mxCell id="HQRRhqOJha28pibekyes-21" value="dynamic&lt;br&gt;port" style="text;strokeColor=none;align=center;fillColor=none;html=1;verticalAlign=middle;whiteSpace=wrap;rounded=0;" vertex="1" parent="1">
          <mxGeometry x="435" y="275.5" width="60" height="30" as="geometry" />
        </mxCell>
        <mxCell id="HQRRhqOJha28pibekyes-22" value="dynamic&lt;br&gt;port" style="text;strokeColor=none;align=center;fillColor=none;html=1;verticalAlign=middle;whiteSpace=wrap;rounded=0;" vertex="1" parent="1">
          <mxGeometry x="365" y="474.5" width="60" height="30" as="geometry" />
        </mxCell>
        <mxCell id="HQRRhqOJha28pibekyes-23" value="Port 8001" style="text;strokeColor=none;align=center;fillColor=none;html=1;verticalAlign=middle;whiteSpace=wrap;rounded=0;" vertex="1" parent="1">
          <mxGeometry x="515" y="578" width="60" height="30" as="geometry" />
        </mxCell>
        <mxCell id="HQRRhqOJha28pibekyes-24" value="Port 8080" style="text;strokeColor=none;align=center;fillColor=none;html=1;verticalAlign=middle;whiteSpace=wrap;rounded=0;" vertex="1" parent="1">
          <mxGeometry x="515" y="405.5" width="60" height="30" as="geometry" />
        </mxCell>
        <mxCell id="HQRRhqOJha28pibekyes-27" value="" style="endArrow=none;html=1;rounded=0;exitX=0;exitY=0.5;exitDx=0;exitDy=0;exitPerimeter=0;entryX=0;entryY=0.5;entryDx=0;entryDy=0;entryPerimeter=0;" edge="1" parent="1" source="HQRRhqOJha28pibekyes-10" target="HQRRhqOJha28pibekyes-3">
          <mxGeometry width="50" height="50" relative="1" as="geometry">
            <mxPoint x="900" y="450" as="sourcePoint" />
            <mxPoint x="950" y="400" as="targetPoint" />
          </mxGeometry>
        </mxCell>
        <mxCell id="HQRRhqOJha28pibekyes-28" value="" style="endArrow=none;html=1;rounded=0;exitX=0;exitY=0.5;exitDx=0;exitDy=0;exitPerimeter=0;entryX=0;entryY=0.5;entryDx=0;entryDy=0;entryPerimeter=0;" edge="1" parent="1" source="HQRRhqOJha28pibekyes-6" target="HQRRhqOJha28pibekyes-4">
          <mxGeometry width="50" height="50" relative="1" as="geometry">
            <mxPoint x="585" y="473.5" as="sourcePoint" />
            <mxPoint x="634" y="473.5" as="targetPoint" />
          </mxGeometry>
        </mxCell>
      </root>
    </mxGraphModel>
  </diagram>
</mxfile>
